<svg xmlns="http://www.w3.org/2000/svg" width="500" height="500" viewBox="0 0 500 500" fill="none"><path d="M326.853 268.942C336.336 269.207 366.924 265.229 389.017 252.244C344.844 230.927 303.704 177.142 303.704 177.142C303.704 177.142 325.69 180.151 353.763 165.086C301.236 145.003 250.506 74.2139 250.506 74.2139C250.506 74.2139 199.777 145.003 147.237 165.086C175.322 180.151 197.308 177.142 197.308 177.142C197.308 177.142 156.156 230.926 111.995 252.244C134.076 265.229 164.675 269.206 174.158 268.942C156.086 287.333 113.711 322.61 67 342.128C94.1336 358.845 151.432 374.191 210.164 379.344L215.17 424.786H285.842L290.848 379.344C349.58 374.191 406.866 358.845 434 342.128C387.301 322.61 344.914 287.333 326.853 268.942Z" fill="#CE0AF0"></path></svg>